<svg id="Capa_1" enable-background="new 0 0 512 512" height="512" viewBox="0 0 512 512" width="512" xmlns="http://www.w3.org/2000/svg"><g><g><g><g><path d="m265.337 489.048 23.935-98.498h-128.049l23.935 98.499c2.531 10.417 11.86 17.75 22.581 17.75h35.02c10.719-.002 20.047-7.335 22.578-17.751z" fill="#4a80aa"/><path d="m283.772 390.549-23.935 98.499c-2.531 10.417-11.86 17.751-22.581 17.751h67.005c10.72 0 20.049-7.334 22.581-17.751l23.935-98.499z" fill="#407093"/><g><g><path d="m231.087 478.513c-3.513 0-6.691-2.411-7.52-5.981l-8.648-37.238c-.965-4.156 1.622-8.308 5.778-9.274 4.16-.967 8.309 1.622 9.274 5.779l8.648 37.238c.965 4.156-1.622 8.308-5.778 9.274-.588.137-1.176.202-1.754.202z" fill="#f2f9ff"/></g><g><path d="m280.913 478.513c-.578 0-1.167-.065-1.755-.202-4.156-.966-6.743-5.118-5.778-9.274l8.648-37.238c.966-4.156 5.116-6.745 9.274-5.779 4.156.966 6.743 5.118 5.778 9.274l-8.648 37.238c-.828 3.569-4.005 5.981-7.519 5.981z" fill="#f2f9ff"/></g></g></g><g><g><g><path d="m274.741 112.387c2.538-35.875-15.213-63.226-34.475-81.699-4.663-4.472-10.862-6.986-17.321-7.13-21.605 16.934-45.714 45.395-46.505 89.1-1.423 78.609 79.56 225.387 79.56 225.387s3.229-5.854 8.377-15.829c1.754-58.388 4.861-132.038 10.364-209.829z" fill="#c6e873"/><path d="m268.255 112.658c-5.948 84.064-9.008 163.155-10.583 222.306 11.53-21.436 79.19-150.388 77.889-222.306-1.169-64.586-54.124-96.562-72.98-105.914-4.146-2.057-9.016-2.057-13.161 0-6.174 3.062-16.004 8.551-26.474 16.815 22.801 17.003 48.377 45.734 45.309 89.099z" fill="#b5e245"/><g><path d="m256 339.481c-4.267 0-7.726-3.459-7.726-7.726v-222.773c0-4.268 3.459-7.726 7.726-7.726s7.726 3.459 7.726 7.726v222.773c0 4.267-3.459 7.726-7.726 7.726z" fill="#a8d340"/></g><g><g><path d="m429.494 199.373c17.084-14.086 29.812-32.431 36.809-52.996 3.484-10.24 2.021-21.52-3.707-30.696-42.55-6.861-84.468 3.978-112.465 25.368-67.684 51.712-92.807 145.98-94.13 229.096 8.653-5.333 17.359-10.605 26.116-15.819 21.734-35.565 63.018-85.395 147.377-154.953z" fill="#c6e873"/><path d="m510.169 138.094c-.866-4.884-4.159-8.991-8.698-10.992-12.733-5.613-25.824-9.337-38.875-11.421-1.803 32.807-17.543 62.891-42.769 83.692-91.701 75.611-132.505 127.914-152.624 163.919 23.398-14.221 47.166-28.019 71.521-41.196 43.531-23.55 93.038-43.406 130.295-73.531 32.226-26.056 48.752-67.605 41.15-110.471z" fill="#b5e245"/><g><g><g><path d="m255.995 377.873c-1.107 0-2.23-.238-3.297-.743-3.858-1.824-5.507-6.43-3.683-10.287 33.007-69.819 81.289-120.323 115.981-150.396 37.628-32.62 67.144-48.567 68.382-49.23 3.762-2.011 8.444-.598 10.459 3.165 2.014 3.761.599 8.441-3.161 10.457-.291.156-29.522 15.986-65.906 47.587-33.456 29.057-80.008 77.805-111.785 145.022-1.32 2.79-4.095 4.425-6.99 4.425z" fill="#a8d340"/></g></g></g></g><g><path d="m115.279 184.369c-27.031-20.652-66.857-31.724-107.835-27.252l-7.318 6.689c1.463 33.284 17.164 63.986 42.855 84.76 37.258 30.125 86.765 49.981 130.295 73.531 28.251 15.284 55.714 31.402 82.723 48.048-.131-8.2-.497-16.51-1.109-24.875-29.474-62.562-89.02-122.248-139.611-160.901z" fill="#c6e873"/><path d="m113.965 188.953c53.044 40.527 116.245 104.901 141.743 170.861-3.181-80.484-28.946-169.184-93.84-218.764-36.533-27.912-97.172-37.826-151.34-13.947-4.538 2.001-7.832 6.108-8.698 10.992-1.537 8.664-2.071 17.272-1.706 25.711 42.936-7.239 85.594 3.566 113.841 25.147z" fill="#b5e245"/><g><g><g><path d="m256.005 377.873c-2.895 0-5.671-1.635-6.99-4.427-60.989-129.006-176.528-191.985-177.688-192.606-3.762-2.015-5.179-6.697-3.164-10.459 2.014-3.763 6.697-5.176 10.459-3.165 1.238.663 30.754 16.611 68.382 49.23 34.692 30.073 82.975 80.577 115.981 150.396 1.824 3.857.175 8.463-3.683 10.287-1.067.505-2.19.744-3.297.744z" fill="#a8d340"/></g></g></g></g></g></g></g><path d="m430.138 402.696c9.971 0 18.054-8.083 18.054-18.054v-12.725l-2.75-5.329h-434.916c-5.813 0-10.526 4.713-10.526 10.526v15.057c0 5.813 4.713 10.526 10.526 10.526z" fill="#afe2f7"/><path d="m501.474 366.588h-56.032v18.054c0 9.971-8.083 18.054-18.054 18.054h74.086c5.813 0 10.526-4.713 10.526-10.526v-15.057c0-5.812-4.713-10.525-10.526-10.525z" fill="#8fd6f7"/></g></g></g><path d="m297.942 366.588c9.717 0 17.594-7.877 17.594-17.594v-17.594h-161.31c-9.717 0-17.594 7.877-17.594 17.594s7.877 17.594 17.594 17.594z" fill="#4a80aa"/><path d="m357.775 331.4h-47.739v17.594c0 9.717-7.877 17.594-17.594 17.594h65.333c9.717 0 17.594-7.877 17.594-17.594s-7.877-17.594-17.594-17.594z" fill="#407093"/></g></svg>