<svg id="Capa_1" enable-background="new 0 0 512 512" height="512" viewBox="0 0 512 512" width="512" xmlns="http://www.w3.org/2000/svg"><g><path d="m428.707 476.243h-309.657c-10.035 0-18.171-8.135-18.171-18.171v-439.901c0-10.036 8.135-18.171 18.171-18.171h309.657c10.035 0 18.171 8.135 18.171 18.171v439.902c-.001 10.035-8.136 18.17-18.171 18.17z" fill="#3c87d0"/><path d="m392.95 512h-309.657c-10.035 0-18.171-8.135-18.171-18.171v-439.902c0-10.035 8.135-18.171 18.171-18.171h309.657c10.035 0 18.171 8.135 18.171 18.171v439.902c0 10.036-8.135 18.171-18.171 18.171z" fill="#c8effe"/><path d="m392.95 35.757h-37.975c10.035 0 18.171 8.135 18.171 18.171v439.902c0 10.035-8.135 18.171-18.171 18.171h37.975c10.035 0 18.171-8.135 18.171-18.171v-439.903c0-10.035-8.135-18.17-18.171-18.17z" fill="#b3dafe"/><g><g><path d="m365.959 118.27h-99.892c-3.969 0-7.187-3.218-7.187-7.187 0-3.969 3.218-7.187 7.187-7.187h99.892c3.969 0 7.187 3.218 7.187 7.187-.001 3.97-3.218 7.187-7.187 7.187z" fill="#3e5959"/></g><g><path d="m365.959 151.89h-99.892c-3.969 0-7.187-3.218-7.187-7.187 0-3.969 3.218-7.187 7.187-7.187h99.892c3.969 0 7.187 3.218 7.187 7.187-.001 3.969-3.218 7.187-7.187 7.187z" fill="#3e5959"/></g><g><path d="m365.959 185.509h-99.892c-3.969 0-7.187-3.218-7.187-7.187 0-3.969 3.218-7.187 7.187-7.187h99.892c3.969 0 7.187 3.218 7.187 7.187-.001 3.97-3.218 7.187-7.187 7.187z" fill="#3e5959"/></g></g><g><path d="m365.959 373.137h-92.861c-3.969 0-7.187-3.218-7.187-7.187 0-3.969 3.218-7.187 7.187-7.187h92.861c3.969 0 7.187 3.218 7.187 7.187-.001 3.969-3.218 7.187-7.187 7.187z" fill="#3e5959"/></g><g><path d="m210.177 303.009h-99.892c-3.969 0-7.187-3.218-7.187-7.187 0-3.969 3.218-7.187 7.187-7.187h99.892c3.969 0 7.187 3.218 7.187 7.187 0 3.969-3.218 7.187-7.187 7.187z" fill="#3e5959"/></g><g><path d="m210.177 269.389h-99.892c-3.969 0-7.187-3.218-7.187-7.187 0-3.969 3.218-7.187 7.187-7.187h99.892c3.969 0 7.187 3.218 7.187 7.187 0 3.97-3.218 7.187-7.187 7.187z" fill="#3e5959"/></g><path d="m169.859 74.888v66.757h66.757c0-36.868-29.888-66.757-66.757-66.757z" fill="#ee6161"/><path d="m169.859 74.888c-36.869 0-66.757 29.888-66.757 66.757s29.888 66.757 66.757 66.757 66.757-29.888 66.757-66.757h-66.757z" fill="#fea95c"/><path d="m368.354 318.3h-120.011c-2.646 0-4.791-2.145-4.791-4.791v-68.993c0-2.646 2.145-4.791 4.791-4.791h120.011c2.646 0 4.791 2.145 4.791 4.791v68.993c0 2.646-2.145 4.791-4.791 4.791z" fill="#ee6161"/><path d="m128.883 460.612h-20.994c-2.646 0-4.791-2.145-4.791-4.791v-104.805c0-2.646 2.145-4.791 4.791-4.791h20.994c2.646 0 4.791 2.145 4.791 4.791v104.805c0 2.646-2.145 4.791-4.791 4.791z" fill="#fe7701"/><path d="m185.924 460.612h-20.994c-2.646 0-4.791-2.145-4.791-4.791v-77.306c0-2.646 2.145-4.791 4.791-4.791h20.994c2.646 0 4.791 2.145 4.791 4.791v77.306c0 2.646-2.145 4.791-4.791 4.791z" fill="#fe9738"/><path d="m242.966 460.612h-20.994c-2.646 0-4.791-2.145-4.791-4.791v-43.046c0-2.646 2.145-4.791 4.791-4.791h20.994c2.646 0 4.791 2.145 4.791 4.791v43.046c0 2.646-2.145 4.791-4.791 4.791z" fill="#fea95c"/><g><path d="m365.959 408.448h-92.861c-3.969 0-7.187-3.218-7.187-7.187 0-3.969 3.218-7.187 7.187-7.187h92.861c3.969 0 7.187 3.218 7.187 7.187-.001 3.97-3.218 7.187-7.187 7.187z" fill="#3e5959"/></g><g><path d="m365.959 443.76h-92.861c-3.969 0-7.187-3.218-7.187-7.187 0-3.969 3.218-7.187 7.187-7.187h92.861c3.969 0 7.187 3.218 7.187 7.187-.001 3.969-3.218 7.187-7.187 7.187z" fill="#3e5959"/></g></g></svg>